<svg viewBox="0 0 24 24" class="ng-element" data-id="ae0c0cd62123347eab123c49aba4eb03" style="width:32px;height:32px" xmlns="http://www.w3.org/2000/svg" fill="#fff" filter="none"><path xmlns:default="http://www.w3.org/2000/svg" d="M11.09 20.18c-.06.24-.23.44-.45.55-.24.18-.51.33-.79.44-.15.06-.31.08-.47.08a4.21 4.21 0 0 1-1-.19L8.3 21c-.75-.21-1.41-.68-1.86-1.32-.33-.54-.61-1.1-.86-1.68a9.35 9.35 0 0 1-.71-2.25c-.14-.84-.21-1.69-.2-2.54-.01-.85.06-1.7.2-2.54.14-.78.38-1.53.71-2.25l.09-.2c.21-.47.37-.8.47-1 .14-.25.3-.5.48-.73.2-.28.45-.51.74-.69.32-.18.65-.32 1-.42.32-.1.66-.17 1-.19.16 0 .32.02.47.08.28.11.55.26.79.44.22.11.39.31.45.55-.03.2-.08.4-.14.6-.09.33-.2.7-.32 1.11l-.21.72-.02.31c-.02.13-.05.25-.09.37-.03.08-.08.16-.14.22-.15.12-.34.17-.53.15-.24 0-.49-.02-.73-.06a9.22 9.22 0 0 0-.74-.06.773.773 0 0 0-.49.11c-.05.05-.08.1-.11.16-.03.07-.06.14-.08.21l-.07.25-.05.19a9.406 9.406 0 0 0 0 5.31l.05.26.07.25c.02.07.05.14.08.21.03.06.06.11.11.16.15.09.32.13.49.11.25-.01.49-.03.74-.06.24-.03.49-.05.73-.06.19-.02.38.04.53.15.06.06.11.14.14.22.04.12.07.24.09.37l.05.28c0 .06.07.3.21.72.14.42.26.79.36 1.12.06.2.11.4.14.6h-.05zm1.66-9.51c.18 0 .34-.08.47-.2a2.665 2.665 0 0 0 .01-3.76l-.01-.01a.664.664 0 1 0-.94.94c.25.25.39.59.39.95.01.35-.14.69-.39.94-.27.26-.27.68-.01.95.12.13.3.2.48.19zm2.35 1.69a5.135 5.135 0 0 0 1.56-3.76c.02-1.42-.54-2.78-1.56-3.77a.664.664 0 1 0-.94.94c.76.74 1.18 1.77 1.17 2.83.01 1.06-.41 2.09-1.17 2.83-.26.25-.27.66-.02.92l.02.02c.25.26.66.26.92.01.01 0 .01-.01.02-.02zm1.42 2.08c.18 0 .35-.07.47-.2 3.12-3.12 3.12-8.17.01-11.3a.664.664 0 1 0-.94.94c.61.61 1.09 1.33 1.43 2.12.67 1.63.67 3.47 0 5.1-.33.81-.82 1.55-1.44 2.17-.26.25-.27.66-.02.92l.02.02c.12.13.29.2.47.2v.03z"/></svg>