<svg viewBox="0 0 24 24" class="ng-element" data-id="1d31007bf8315f383a4c5a45a46febca" style="width:26px;height:26px" xmlns="http://www.w3.org/2000/svg" fill="#fff" filter="none"><path xmlns:default="http://www.w3.org/2000/svg" d="M13.24 8.1A.31.31 0 0 0 13 8h-.67c-.18-.01-.32.13-.33.31V12H9.67c-.18-.01-.32.13-.33.31V13c-.01.18.13.32.31.33H13c.18.01.32-.13.33-.31V8.34a.34.34 0 0 0-.09-.24zm3.66 6.75c-.49.85-1.21 1.57-2.06 2.06a5.703 5.703 0 0 1-5.68 0c-.86-.5-1.57-1.21-2.06-2.07a5.703 5.703 0 0 1 0-5.68c.49-.85 1.21-1.57 2.06-2.06a5.703 5.703 0 0 1 5.68 0c.85.49 1.57 1.21 2.06 2.06a5.703 5.703 0 0 1 0 5.68v.01zm2-6.86c-.7-1.21-1.7-2.21-2.9-2.91A7.798 7.798 0 0 0 12 4c-1.41-.01-2.79.37-4 1.08-1.21.7-2.22 1.71-2.92 2.92A7.798 7.798 0 0 0 4 12c-.01 1.41.36 2.79 1.07 4 .7 1.21 1.71 2.22 2.93 2.92 1.21.71 2.59 1.09 4 1.08 1.41.01 2.79-.36 4-1.07 1.21-.7 2.22-1.71 2.92-2.93A7.798 7.798 0 0 0 20 12c.01-1.41-.37-2.79-1.08-4l-.02-.01z"/></svg>