<svg viewBox="0 0 24 24" class="ng-element" data-id="bab22e5a4873989a52e6decc68c0ea7f" style="width:24px;height:24px" xmlns="http://www.w3.org/2000/svg" fill="#fff" filter="none"><path xmlns:default="http://www.w3.org/2000/svg" d="M20 17.66c-.01.18-.15.32-.33.33H4.34c-.18 0-.33-.15-.34-.33v-8c.22.25.46.48.72.69 1.86 1.43 3.34 2.6 4.44 3.52.35.3.64.53.86.7.28.2.58.37.9.5.33.16.7.25 1.07.26.37-.01.74-.1 1.07-.26.32-.13.62-.3.9-.5.22-.17.51-.4.86-.7 1.1-.91 2.58-2.09 4.44-3.52.26-.21.51-.43.74-.68v8-.01zm0-10.94c-.03.49-.19.97-.48 1.37-.27.45-.6.86-1 1.2l-4.18 3.3-.36.31-.48.39-.5.33c-.17.12-.34.21-.53.29-.15.06-.31.09-.47.09-.15 0-.31-.03-.45-.09a2.89 2.89 0 0 1-.55-.29l-.46-.33-.48-.39-.36-.31-4.17-3.3A3.644 3.644 0 0 1 4 6.34c0-.19.15-.34.34-.34h15.32c.05.02.1.02.15 0 0 0 .07 0 .09.08-.01.06.04.11.1.12v.52zm.84-1.56c-.31-.32-.74-.5-1.18-.49H4.34c-.92 0-1.67.75-1.67 1.67v11.32c0 .92.75 1.67 1.67 1.67h15.32c.92 0 1.67-.75 1.67-1.67V6.34c.01-.44-.17-.87-.49-1.18z"/></svg>