<svg viewBox="0 0 24 24" class="ng-element" data-id="0e7097524a78cfdaf7e5d6ef408a30ea" style="width:32px;height:32px" xmlns="http://www.w3.org/2000/svg" fill="#fff" filter="none"><path xmlns:default="http://www.w3.org/2000/svg" d="M13.88 11.22a2.665 2.665 0 0 1-3.76.01l-.01-.01a2.647 2.647 0 0 1-.01-3.76l.01-.01a2.665 2.665 0 0 1 3.76-.01l.01.01c.98 1.03.92 2.69 0 3.77zm3.45-1.88c.02-1.42-.54-2.78-1.56-3.77A5.15 5.15 0 0 0 12 4a5.15 5.15 0 0 0-3.77 1.57 5.135 5.135 0 0 0-1.56 3.76c-.03.64.08 1.28.33 1.87l3.8 8.06c.1.23.27.41.48.54.43.26.98.26 1.41 0 .21-.13.38-.32.49-.54L17 11.2c.25-.59.36-1.22.34-1.86h-.01z"/></svg>