<svg viewBox="0 0 24 24" class="ng-element" data-id="90b752898c282d973725af6077bd0ff7" style="width:26px;height:26px" xmlns="http://www.w3.org/2000/svg" fill="#fff" filter="none"><path xmlns:default="http://www.w3.org/2000/svg" d="M8.39 8.39c-.52.52-1.37.52-1.89 0s-.52-1.37 0-1.89c.52-.52 1.37-.52 1.89 0s.52 1.37 0 1.89zm11.5 5.05c0-.36-.14-.7-.39-.95l-7.44-7.43c-.31-.29-.67-.52-1.06-.67-.38-.17-.8-.27-1.22-.28H5.45c-.74.01-1.33.6-1.34 1.34v4.33c.01.42.11.84.28 1.22.16.37.38.71.67 1l7.44 7.5c.25.25.59.4.94.39.36 0 .7-.14.95-.39l5.11-5.12c.25-.25.4-.59.39-.94z"/></svg>