<?xml version="1.0" standalone="no"?>
<svg version="1.1" preserveAspectRatio="xMidYMid meet" viewBox="0 0 24 24" class="ng-element" data-id="ae0c0cd62123347eab123c49aba4eb03" style="fill: rgb(255, 255, 255); width: 32px; height: 32px; filter: none;" xmlns="http://www.w3.org/2000/svg"><g><path xmlns:default="http://www.w3.org/2000/svg" id="volume-control-phone" d="M11.09,20.18c-0.06,0.24-0.23,0.44-0.45,0.55c-0.24,0.18-0.51,0.33-0.79,0.44  c-0.15,0.06-0.31,0.08-0.47,0.08c-0.34-0.02-0.68-0.09-1-0.19L8.3,21c-0.75-0.21-1.41-0.68-1.86-1.32c-0.33-0.54-0.61-1.1-0.86-1.68  c-0.33-0.72-0.57-1.47-0.71-2.25c-0.14-0.84-0.21-1.69-0.2-2.54c-0.01-0.85,0.06-1.7,0.2-2.54c0.14-0.78,0.38-1.53,0.71-2.25  l0.09-0.2c0.21-0.47,0.37-0.8,0.47-1c0.14-0.25,0.3-0.5,0.48-0.73c0.2-0.28,0.45-0.51,0.74-0.69c0.32-0.18,0.65-0.32,1-0.42  c0.32-0.1,0.66-0.17,1-0.19c0.16,0,0.32,0.02,0.47,0.08c0.28,0.11,0.55,0.26,0.79,0.44c0.22,0.11,0.39,0.31,0.45,0.55  c-0.03,0.2-0.08,0.4-0.14,0.6c-0.09,0.33-0.2,0.7-0.32,1.11c-0.12,0.41-0.19,0.65-0.21,0.72L10.38,9c-0.02,0.13-0.05,0.25-0.09,0.37  c-0.03,0.08-0.08,0.16-0.14,0.22C10,9.71,9.81,9.76,9.62,9.74C9.38,9.74,9.13,9.72,8.89,9.68C8.64,9.65,8.4,9.63,8.15,9.62  C7.98,9.6,7.81,9.64,7.66,9.73c-0.05,0.05-0.08,0.1-0.11,0.16c-0.03,0.07-0.06,0.14-0.08,0.21L7.4,10.35l-0.05,0.19  c-0.51,1.73-0.51,3.58,0,5.31l0.05,0.26l0.07,0.25c0.02,0.07,0.05,0.14,0.08,0.21c0.03,0.06,0.06,0.11,0.11,0.16  c0.15,0.09,0.32,0.13,0.49,0.11c0.25-0.01,0.49-0.03,0.74-0.06c0.24-0.03,0.49-0.05,0.73-0.06c0.19-0.02,0.38,0.04,0.53,0.15  c0.06,0.06,0.11,0.14,0.14,0.22c0.04,0.12,0.07,0.24,0.09,0.37l0.05,0.28c0,0.06,0.07,0.3,0.21,0.72c0.14,0.42,0.26,0.79,0.36,1.12  c0.06,0.2,0.11,0.4,0.14,0.6l0,0H11.09z M12.75,10.67c0.18,0,0.34-0.08,0.47-0.2c1.04-1.04,1.04-2.72,0.01-3.76  c0,0-0.01-0.01-0.01-0.01c-0.26-0.26-0.68-0.26-0.94,0c-0.26,0.26-0.26,0.68,0,0.94l0,0c0.25,0.25,0.39,0.59,0.39,0.95  c0.01,0.35-0.14,0.69-0.39,0.94c-0.27,0.26-0.27,0.68-0.01,0.95C12.39,10.61,12.57,10.68,12.75,10.67L12.75,10.67L12.75,10.67z   M15.1,12.36c1.02-0.99,1.58-2.35,1.56-3.76c0.02-1.42-0.54-2.78-1.56-3.77c-0.26-0.26-0.68-0.26-0.94,0  c-0.26,0.26-0.26,0.68,0,0.94l0,0c0.76,0.74,1.18,1.77,1.17,2.83c0.01,1.06-0.41,2.09-1.17,2.83c-0.26,0.25-0.27,0.66-0.02,0.92  c0.01,0.01,0.01,0.01,0.02,0.02c0.25,0.26,0.66,0.26,0.92,0.01C15.09,12.38,15.09,12.37,15.1,12.36z M16.52,14.44  c0.18,0,0.35-0.07,0.47-0.2c3.12-3.12,3.12-8.17,0.01-11.3c-0.26-0.26-0.68-0.26-0.94,0c-0.26,0.26-0.26,0.68,0,0.94  c0.61,0.61,1.09,1.33,1.43,2.12c0.67,1.63,0.67,3.47,0,5.1c-0.33,0.81-0.82,1.55-1.44,2.17c-0.26,0.25-0.27,0.66-0.02,0.92  c0.01,0.01,0.01,0.01,0.02,0.02c0.12,0.13,0.29,0.2,0.47,0.2l0,0L16.52,14.44z" style="fill: rgb(255, 255, 255);"/></g></svg>