<?xml version="1.0" standalone="no"?>
<svg version="1.1" preserveAspectRatio="xMidYMid meet" viewBox="0 0 24 24" class="ng-element" data-id="1d31007bf8315f383a4c5a45a46febca" style="fill: rgb(255, 255, 255); width: 26px; height: 26px; filter: none;" xmlns="http://www.w3.org/2000/svg"><g><path xmlns:default="http://www.w3.org/2000/svg" id="clock-o" d="M13.24,8.1C13.18,8.03,13.09,8,13,8h-0.67C12.15,7.99,12.01,8.13,12,8.31c0,0.01,0,0.01,0,0.02V12H9.67  c-0.18-0.01-0.32,0.13-0.33,0.31c0,0.01,0,0.01,0,0.02V13c-0.01,0.18,0.13,0.32,0.31,0.33c0.01,0,0.01,0,0.02,0H13  c0.18,0.01,0.32-0.13,0.33-0.31c0-0.01,0-0.01,0-0.02V8.34C13.33,8.25,13.3,8.16,13.24,8.1z M16.9,14.85  c-0.49,0.85-1.21,1.57-2.06,2.06c-1.76,1.01-3.92,1.01-5.68,0c-0.86-0.5-1.57-1.21-2.06-2.07c-1.01-1.76-1.01-3.92,0-5.68  C7.59,8.31,8.31,7.59,9.16,7.1c1.76-1.01,3.92-1.01,5.68,0c0.85,0.49,1.57,1.21,2.06,2.06c1.01,1.76,1.01,3.92,0,5.68V14.85z   M18.9,7.99c-0.7-1.21-1.7-2.21-2.9-2.91C14.79,4.37,13.41,3.99,12,4c-1.41-0.01-2.79,0.37-4,1.08C6.79,5.78,5.78,6.79,5.08,8  C4.37,9.21,3.99,10.59,4,12c-0.01,1.41,0.36,2.79,1.07,4c0.7,1.21,1.71,2.22,2.93,2.92c1.21,0.71,2.59,1.09,4,1.08  c1.41,0.01,2.79-0.36,4-1.07c1.21-0.7,2.22-1.71,2.92-2.93c0.71-1.21,1.09-2.59,1.08-4c0.01-1.41-0.37-2.79-1.08-4L18.9,7.99z" style="fill: rgb(255, 255, 255);"/></g></svg>