<?xml version="1.0" standalone="no"?>
<svg version="1.1" preserveAspectRatio="xMidYMid meet" viewBox="0 0 24 24" class="ng-element" data-id="bab22e5a4873989a52e6decc68c0ea7f" style="fill: rgb(255, 255, 255); width: 24px; height: 24px; filter: none;" xmlns="http://www.w3.org/2000/svg"><g><path xmlns:default="http://www.w3.org/2000/svg" id="envelope-o" d="M20,17.66c-0.01,0.18-0.15,0.32-0.33,0.33H4.34c-0.18,0-0.33-0.15-0.34-0.33v-8  c0.22,0.25,0.46,0.48,0.72,0.69c1.86,1.43,3.34,2.6,4.44,3.52c0.35,0.3,0.64,0.53,0.86,0.7c0.28,0.2,0.58,0.37,0.9,0.5  c0.33,0.16,0.7,0.25,1.07,0.26l0,0c0.37-0.01,0.74-0.1,1.07-0.26c0.32-0.13,0.62-0.3,0.9-0.5c0.22-0.17,0.51-0.4,0.86-0.7  c1.1-0.91,2.58-2.09,4.44-3.52c0.26-0.21,0.51-0.43,0.74-0.68v8l0,0V17.66z M20,6.72c-0.03,0.49-0.19,0.97-0.48,1.37  c-0.27,0.45-0.6,0.86-1,1.2l-4.18,3.3l-0.36,0.31l-0.48,0.39L13,13.62c-0.17,0.12-0.34,0.21-0.53,0.29C12.32,13.97,12.16,14,12,14  l0,0c-0.15,0-0.31-0.03-0.45-0.09c-0.19-0.08-0.38-0.17-0.55-0.29l-0.46-0.33l-0.48-0.39L9.7,12.59l-4.17-3.3  C4.57,8.61,4.01,7.51,4,6.34C4,6.15,4.15,6,4.34,6c0,0,0,0,0,0h15.32c0.05,0.02,0.1,0.02,0.15,0c0,0,0.07,0,0.09,0.08  C19.89,6.14,19.94,6.19,20,6.2c0,0,0,0,0,0c0,0,0,0,0,0.13V6.72L20,6.72z M20.84,5.16c-0.31-0.32-0.74-0.5-1.18-0.49H4.34  c-0.92,0-1.67,0.75-1.67,1.67l0,0v11.32c0,0.92,0.75,1.67,1.67,1.67l0,0h15.32c0.92,0,1.67-0.75,1.67-1.67l0,0V6.34  C21.34,5.9,21.16,5.47,20.84,5.16z" style="fill: rgb(255, 255, 255);"/></g></svg>