<?xml version="1.0" standalone="no"?>
<svg version="1.1" preserveAspectRatio="xMidYMid meet" viewBox="0 0 24 24" class="ng-element" data-id="90b752898c282d973725af6077bd0ff7" style="fill: rgb(255, 255, 255); width: 26px; height: 26px; filter: none;" xmlns="http://www.w3.org/2000/svg"><g><path xmlns:default="http://www.w3.org/2000/svg" id="tag" d="M8.39,8.39c-0.52,0.52-1.37,0.52-1.89,0s-0.52-1.37,0-1.89l0,0c0.52-0.52,1.37-0.52,1.89,0S8.91,7.87,8.39,8.39z   M19.89,13.44c0-0.36-0.14-0.7-0.39-0.95l-7.44-7.43C11.75,4.77,11.39,4.54,11,4.39c-0.38-0.17-0.8-0.27-1.22-0.28H5.45  c-0.74,0.01-1.33,0.6-1.34,1.34v4.33C4.12,10.2,4.22,10.62,4.39,11c0.16,0.37,0.38,0.71,0.67,1l7.44,7.5  c0.25,0.25,0.59,0.4,0.94,0.39c0.36,0,0.7-0.14,0.95-0.39l5.11-5.12C19.75,14.13,19.9,13.79,19.89,13.44L19.89,13.44z" style="fill: rgb(255, 255, 255);"/></g></svg>